<svg width="320" height="78" viewBox="0 0 320 78" fill="none" xmlns="http://www.w3.org/2000/svg">
<g filter="url(#filter0_ii_142_55)">
<path d="M304.337 0.533013C116.535 -0.177697 203.465 -0.177658 15.6627 0.533052C9.45095 0.557086 3.52066 4.31749 2.69104 8.92981C-0.897037 28.9765 -0.897037 49.0231 2.69104 69.0706C3.52066 73.683 9.45095 77.443 15.6627 77.467C203.465 78.1777 116.535 78.1776 304.337 77.4669C310.549 77.4429 316.479 73.6829 317.308 69.0706C320.897 49.0231 320.897 28.9764 317.308 8.92978C316.479 4.31746 310.549 0.557047 304.337 0.533013Z" fill="url(#paint0_linear_142_55)"/>
<path d="M304.337 0.533013C116.535 -0.177697 203.465 -0.177658 15.6627 0.533052C9.45095 0.557086 3.52066 4.31749 2.69104 8.92981C-0.897037 28.9765 -0.897037 49.0231 2.69104 69.0706C3.52066 73.683 9.45095 77.443 15.6627 77.467C203.465 78.1777 116.535 78.1776 304.337 77.4669C310.549 77.4429 316.479 73.6829 317.308 69.0706C320.897 49.0231 320.897 28.9764 317.308 8.92978C316.479 4.31746 310.549 0.557047 304.337 0.533013Z" fill="url(#paint1_linear_142_55)" fill-opacity="0.39"/>
</g>
<defs>
<filter id="filter0_ii_142_55" x="0" y="0" width="339" height="80" filterUnits="userSpaceOnUse" color-interpolation-filters="sRGB">
<feFlood flood-opacity="0" result="BackgroundImageFix"/>
<feBlend mode="normal" in="SourceGraphic" in2="BackgroundImageFix" result="shape"/>
<feColorMatrix in="SourceAlpha" type="matrix" values="0 0 0 0 0 0 0 0 0 0 0 0 0 0 0 0 0 0 127 0" result="hardAlpha"/>
<feOffset dx="19"/>
<feGaussianBlur stdDeviation="12.5"/>
<feComposite in2="hardAlpha" operator="arithmetic" k2="-1" k3="1"/>
<feColorMatrix type="matrix" values="0 0 0 0 1 0 0 0 0 1 0 0 0 0 1 0 0 0 0.11 0"/>
<feBlend mode="normal" in2="shape" result="effect1_innerShadow_142_55"/>
<feColorMatrix in="SourceAlpha" type="matrix" values="0 0 0 0 0 0 0 0 0 0 0 0 0 0 0 0 0 0 127 0" result="hardAlpha"/>
<feOffset dy="2"/>
<feGaussianBlur stdDeviation="7.5"/>
<feComposite in2="hardAlpha" operator="arithmetic" k2="-1" k3="1"/>
<feColorMatrix type="matrix" values="0 0 0 0 1 0 0 0 0 1 0 0 0 0 1 0 0 0 0.41 0"/>
<feBlend mode="normal" in2="effect1_innerShadow_142_55" result="effect2_innerShadow_142_55"/>
</filter>
<linearGradient id="paint0_linear_142_55" x1="51.0877" y1="-32.5753" x2="311.232" y2="83.1218" gradientUnits="userSpaceOnUse">
<stop stop-color="#FFC771"/>
<stop offset="1" stop-color="#FFC858"/>
</linearGradient>
<linearGradient id="paint1_linear_142_55" x1="-54.2574" y1="64.7778" x2="339.366" y2="-55.814" gradientUnits="userSpaceOnUse">
<stop stop-color="white" stop-opacity="0"/>
<stop offset="0.432292" stop-color="white"/>
<stop offset="1" stop-color="white" stop-opacity="0"/>
</linearGradient>
</defs>
</svg>
